<svg xmlns="http://www.w3.org/2000/svg" viewBox="0 0 1128 552">
    <defs>

        <svg id="twitter" viewBox="0 0 24 24">
            <path fill="#1DA1F2" stroke-linejoin="round" stroke-linecap="round" stroke-width="2"
                d="M23 3c-.9.642-1.943 1.164-3.063 1.509l-.077.021A4.48 4.48 0 0012 7.47v.063-.003 1a10.646 10.646 0 01-8.977-4.496l-.022-.033s-4 9 5 13A11.54 11.54 0 01.978 19l.023.001c9 5 20 0 20-11.5a4.5 4.5 0 00-.085-.859l.005.029a7.717 7.717 0 002.069-3.617l.011-.053z" />
        </svg>

        <svg id="facebook" viewBox="0 0 24 24">
            <rect fill="none" height="24" width="24" />
            <path fill="#1877F2"
                d="M22,12c0-5.52-4.48-10-10-10S2,6.48,2,12c0,4.84,3.44,8.87,8,9.8V15H8v-3h2V9.5C10,7.57,11.57,6,13.5,6H16v3h-2 c-0.55,0-1,0.45-1,1v2h3v3h-3v6.95C18.05,21.45,22,17.19,22,12z" />
        </svg>

        <svg id="google" viewBox="0 0 24 24">
            <path
                d="M22.56 12.25c0-.78-.07-1.53-.2-2.25H12v4.26h5.92c-.26 1.37-1.04 2.53-2.21 3.31v2.77h3.57c2.08-1.92 3.28-4.74 3.28-8.09z"
                fill="#4285F4" />
            <path
                d="M12 23c2.97 0 5.46-.98 7.28-2.66l-3.57-2.77c-.98.66-2.23 1.06-3.71 1.06-2.86 0-5.29-1.93-6.16-4.53H2.18v2.84C3.99 20.53 7.7 23 12 23z"
                fill="#34A853" />
            <path
                d="M5.84 14.09c-.22-.66-.35-1.36-.35-2.09s.13-1.43.35-2.09V7.07H2.18C1.43 8.55 1 10.22 1 12s.43 3.45 1.18 4.93l2.85-2.22.81-.62z"
                fill="#FBBC05" />
            <path
                d="M12 5.38c1.62 0 3.06.56 4.21 1.64l3.15-3.15C17.45 2.09 14.97 1 12 1 7.7 1 3.99 3.47 2.18 7.07l3.66 2.84c.87-2.6 3.3-4.53 6.16-4.53z"
                fill="#EA4335" />
        </svg>

        <svg id="microsoft" viewBox="0 0 24 24">
            <path d="M11.4 11.4H0V0h11.4v11.4z" fill="#F25022" />
            <path d="M24 11.4H12.6V0H24v11.4z" fill="#7FBA00" />
            <path d="M11.4 24H0V12.6h11.4V24z" fill="#00A4EF" />
            <path d="M24 24H12.6V12.6H24V24z" fill="#FFB900" />
        </svg>

        <svg id="apple" viewBox="0 0 24 24">
            <path
                d="M18.71 19.5c-.83 1.24-1.71 2.45-3.05 2.47-1.34.03-1.77-.79-3.29-.79-1.53 0-2 .77-3.27.82-1.31.05-2.3-1.32-3.14-2.53C4.25 17 2.94 12.45 4.7 9.39c.87-1.52 2.43-2.48 4.12-2.51 1.28-.02 2.5.87 3.29.87.78 0 2.26-1.07 3.81-.91.65.03 2.47.26 3.64 1.98-.09.06-2.17 1.28-2.15 3.81.03 3.02 2.65 4.03 2.68 4.04-.03.07-.42 1.44-1.38 2.83M13 3.5c.73-.83 1.94-1.46 2.94-1.5.13 1.17-.34 2.35-1.04 3.19-.69.85-1.83 1.51-2.95 1.42-.15-1.15.41-2.35 1.05-3.11z"
                fill="#000000" />
        </svg>

        <svg id="instagram" viewBox="0 0 24 24">
            <defs>
                <radialGradient id="instagramGradient" cx="50%" cy="50%" r="100%">
                    <stop offset="0%" stop-color="#fdf497" />
                    <stop offset="5%" stop-color="#fdf497" />
                    <stop offset="45%" stop-color="#fd5949" />
                    <stop offset="60%" stop-color="#d6249f" />
                    <stop offset="90%" stop-color="#285AEB" />
                </radialGradient>
            </defs>
            <path
                d="M12 2.163c3.204 0 3.584.012 4.85.07 3.252.148 4.771 1.691 4.919 4.919.058 1.265.069 1.645.069 4.849 0 3.205-.012 3.584-.069 4.849-.149 3.225-1.664 4.771-4.919 4.919-1.266.058-1.644.07-4.85.07-3.204 0-3.584-.012-4.849-.07-3.26-.149-4.771-1.699-4.919-4.92-.058-1.265-.07-1.644-.07-4.849 0-3.204.013-3.583.07-4.849.149-3.227 1.664-4.771 4.919-4.919 1.266-.057 1.645-.069 4.849-.069zm0-2.163c-3.259 0-3.667.014-4.947.072-4.358.2-6.78 2.618-6.98 6.98-.059 1.281-.073 1.689-.073 4.948 0 3.259.014 3.668.072 4.948.2 4.358 2.618 6.78 6.98 6.98 1.281.058 1.689.072 4.948.072 3.259 0 3.668-.014 4.948-.072 4.354-.2 6.782-2.618 6.979-6.98.059-1.28.073-1.689.073-4.948 0-3.259-.014-3.667-.072-4.947-.196-4.354-2.617-6.78-6.979-6.98-1.281-.059-1.69-.073-4.949-.073zm0 5.838c-3.403 0-6.162 2.759-6.162 6.162s2.759 6.163 6.162 6.163 6.162-2.759 6.162-6.163c0-3.403-2.759-6.162-6.162-6.162zm0 10.162c-2.209 0-4-1.79-4-4 0-2.209 1.791-4 4-4s4 1.791 4 4c0 2.21-1.791 4-4 4zm6.406-11.845c-.796 0-1.441.645-1.441 1.44s.645 1.44 1.441 1.44c.795 0 1.439-.645 1.439-1.44s-.644-1.44-1.439-1.44z"
                fill="url(#instagramGradient)" />
        </svg>

        <svg id="linkedin" viewBox="0 0 24 24">
            <path
                d="M20.447 20.452h-3.554v-5.569c0-1.328-.027-3.037-1.852-3.037-1.853 0-2.136 1.445-2.136 2.939v5.667H9.351V9h3.414v1.561h.046c.477-.9 1.637-1.85 3.37-1.85 3.601 0 4.267 2.37 4.267 5.455v6.286zM5.337 7.433c-1.144 0-2.063-.926-2.063-2.065 0-1.138.92-2.063 2.063-2.063 1.14 0 2.064.925 2.064 2.063 0 1.139-.925 2.065-2.064 2.065zm1.782 13.019H3.555V9h3.564v11.452zM22.225 0H1.771C.792 0 0 .774 0 1.729v20.542C0 23.227.792 24 1.771 24h20.451C23.2 24 24 23.227 24 22.271V1.729C24 .774 23.2 0 22.222 0h.003z"
                fill="#0077B5" />
        </svg>

        <svg id="stackoverflow" viewBox="0 0 24 24">
            <path d="M15.725 0l-1.72 1.277 6.39 8.588 1.716-1.277L15.725 0z" fill="#BCBBBB" />
            <path d="M11.785 3.418l-1.369 1.644 8.225 6.85 1.369-1.644-8.225-6.85z" fill="#BCBBBB" />
            <path d="M8.635 7.883l-.905 1.94 9.702 4.517.904-1.94-9.701-4.517z" fill="#F48024" />
            <path d="M6.785 12.743l-.44 2.093 10.473 2.201.44-2.092-10.473-2.203z" fill="#F48024" />
            <path d="M1.89 15.47V24h19.19v-8.53h-2.133v6.397H4.021v-6.396H1.89z" fill="#BCBBBB" />
            <path d="M6.154 17.603v2.13h10.66v-2.13H6.154z" fill="#F48024" />
        </svg>

        <svg id="github" viewBox="0 0 24 24">
            <path
                d="M12 0c-6.626 0-12 5.373-12 12 0 5.302 3.438 9.8 8.207 11.387.599.111.793-.261.793-.577v-2.234c-3.338.726-4.033-1.416-4.033-1.416-.546-1.387-1.333-1.756-1.333-1.756-1.089-.745.083-.729.083-.729 1.205.084 1.839 1.237 1.839 1.237 1.07 1.834 2.807 1.304 3.492.997.107-.775.418-1.305.762-1.604-2.665-.305-5.467-1.334-5.467-5.931 0-1.311.469-2.381 1.236-3.221-.124-.303-.535-1.524.117-3.176 0 0 1.008-.322 3.301 1.23.957-.266 1.983-.399 3.003-.404 1.02.005 2.047.138 3.006.404 2.291-1.552 3.297-1.23 3.297-1.23.653 1.653.242 2.874.118 3.176.77.84 1.235 1.911 1.235 3.221 0 4.609-2.807 5.624-5.479 5.921.43.372.823 1.102.823 2.222v3.293c0 .319.192.694.801.576 4.765-1.589 8.199-6.086 8.199-11.386 0-6.627-5.373-12-12-12z"
                fill="#181717" />
        </svg>

        <svg id="gitlab" viewBox="0 0 24 24">
            <path
                d="M23.955 13.587l-1.342-4.135-2.664-8.189c-.135-.423-.73-.423-.867 0L16.418 9.45H7.582L4.919 1.263c-.135-.423-.73-.423-.867 0L1.388 9.452.045 13.587a.849.849 0 00.308.949L12 23.054l11.647-8.518a.849.849 0 00.308-.949"
                fill="#FC6D26" />
        </svg>

        <svg id="bitbucket" viewBox="0 0 24 24">
            <path
                d="M.778 1.213a.768.768 0 00-.768.892l3.263 19.81c.084.5.515.868 1.022.873H19.95a.772.772 0 00.77-.646l3.27-20.03a.768.768 0 00-.768-.891z"
                fill="#0052CC" />
            <path d="M14.52 15.53H9.522L8.17 8.466h7.561z" fill="#2684FF" />
        </svg>

        <svg id="paypal" viewBox="0 0 24 24">
            <path
                d="M7.076 21.337H2.47a.641.641 0 0 1-.633-.74L4.944.901C5.026.382 5.474 0 5.998 0h7.46c2.57 0 4.578.543 5.69 1.81 1.01 1.15 1.304 2.42 1.012 4.287-.023.143-.047.288-.077.437-.983 5.05-4.349 6.797-8.647 6.797h-2.19c-.524 0-.968.382-1.05.9l-1.12 7.106z"
                fill="#003087" />
            <path
                d="M21.222 6.917a3.35 3.35 0 0 0-.607-.541c-.013.076-.026.175-.041.26-.93 4.778-4.005 7.201-9.138 7.201h-2.27a.681.681 0 0 0-.67.578l-1.423 9.014-.409 2.593a.344.344 0 0 0 .034.298c.036.04.092.06.15.06h3.49c.448 0 .832-.32.903-.75l.375-2.378.024-.14h.86c3.548 0 6.326-1.436 7.134-5.59.337-1.732.23-3.177-.532-4.18-.295-.388-.68-.727-1.142-.975z"
                fill="#0070BA" />
        </svg>

        <svg id="openshift" viewBox="0 0 24 24">
            <path
                d="M21.274 13.604c.274-1.677.274-3.434 0-5.112-2.292-2.295-5.317-3.56-8.49-3.56H12.1v.001h-.003c-.005 0-.012 0-.018.001-.004 0-.008 0-.012.001h-.004v-.002H11.378c-3.173 0-6.198 1.265-8.49 3.56-.274 1.678-.274 3.435 0 5.112 2.292 2.295 5.317 3.56 8.49 3.56h.685v.001h.003c.005 0 .012 0 .018-.001.004 0 .008 0 .012-.001h.004v.002h.684c3.173 0 6.198-1.265 8.49-3.56zm-8.49-8.672h.685c2.8 0 5.52 1.113 7.516 3.108.238 1.472.238 2.948 0 4.42-1.996 1.995-4.716 3.108-7.516 3.108h-.685c-2.8 0-5.52-1.113-7.516-3.108-.238-1.472-.238-2.948 0-4.42 1.996-1.995 4.716-3.108 7.516-3.108z"
                fill="#EE0000" />
        </svg>

        <svg id="discord" viewBox="0 0 24 24">
            <path
                d="M20.317 4.37a19.791 19.791 0 0 0-4.885-1.515.074.074 0 0 0-.079.037c-.21.375-.444.864-.608 1.25a18.27 18.27 0 0 0-5.487 0 12.64 12.64 0 0 0-.617-1.25.077.077 0 0 0-.079-.037A19.736 19.736 0 0 0 3.677 4.37a.07.07 0 0 0-.032.027C.533 9.046-.32 13.58.099 18.057a.082.082 0 0 0 .031.057 19.9 19.9 0 0 0 5.993 3.03.078.078 0 0 0 .084-.028 14.09 14.09 0 0 0 1.226-1.994.076.076 0 0 0-.041-.106 13.107 13.107 0 0 1-1.872-.892.077.077 0 0 1-.008-.128 10.2 10.2 0 0 0 .372-.292.074.074 0 0 1 .077-.01c3.928 1.793 8.18 1.793 12.062 0a.074.074 0 0 1 .078.01c.12.098.246.198.373.292a.077.077 0 0 1-.006.127 12.299 12.299 0 0 1-1.873.892.077.077 0 0 0-.041.107c.36.698.772 1.362 1.225 1.993a.076.076 0 0 0 .084.028 19.839 19.839 0 0 0 6.002-3.03.077.077 0 0 0 .032-.054c.5-5.177-.838-9.674-3.549-13.66a.061.061 0 0 0-.031-.03zM8.02 15.33c-1.183 0-2.157-1.085-2.157-2.419 0-1.333.956-2.419 2.157-2.419 1.21 0 2.176 1.096 2.157 2.42 0 1.333-.956 2.418-2.157 2.418zm7.975 0c-1.183 0-2.157-1.085-2.157-2.419 0-1.333.955-2.419 2.157-2.419 1.21 0 2.176 1.096 2.157 2.42 0 1.333-.946 2.418-2.157 2.418z"
                fill="#5865F2" />
        </svg>

    </defs>
</svg>